<svg xmlns="http://www.w3.org/2000/svg" x="0px" y="0px"
width="96" height="96"
viewBox="0 0 172 172"
style=" fill:#000000;"><g fill="none" fill-rule="nonzero" stroke="none" stroke-width="1" stroke-linecap="butt" stroke-linejoin="miter" stroke-miterlimit="10" stroke-dasharray="" stroke-dashoffset="0" font-family="none" font-weight="none" font-size="none" text-anchor="none" style="mix-blend-mode: normal"><path d="M0,172v-172h172v172z" fill="none"></path><g><path d="M103.91667,111.08333v0c0,0 -3.58333,14.33333 -17.91667,14.33333c-14.33333,0 -17.91667,-14.33333 -17.91667,-14.33333c0,0 -39.41667,7.1165 -39.41667,46.58333h114.66667c0,-39.32708 -39.41667,-46.58333 -39.41667,-46.58333" fill="#4fc3f7"></path><path d="M86,132.58333c-17.91667,0 -17.91667,-21.5 -17.91667,-21.5v-21.5h35.83333v21.5c0,0 0,21.5 -17.91667,21.5z" fill="#ff9800"></path><path d="M125.41667,68.08333c0,3.95958 -3.20708,7.16667 -7.16667,7.16667c-3.95958,0 -7.16667,-3.20708 -7.16667,-7.16667c0,-3.95958 3.20708,-7.16667 7.16667,-7.16667c3.95958,0 7.16667,3.20708 7.16667,7.16667M60.91667,68.08333c0,3.95958 -3.20708,7.16667 -7.16667,7.16667c-3.95958,0 -7.16667,-3.20708 -7.16667,-7.16667c0,-3.95958 3.20708,-7.16667 7.16667,-7.16667c3.95958,0 7.16667,3.20708 7.16667,7.16667" fill="#ffa726"></path><path d="M118.25,46.58333c0,-27.35875 -64.5,-17.81275 -64.5,0v25.08333c0,17.81275 14.43725,32.25 32.25,32.25c17.81275,0 32.25,-14.43725 32.25,-32.25z" fill="#ffb74d"></path><path d="M86,14.33333c-21.76875,0 -35.83333,17.64792 -35.83333,39.41667v8.18433l7.16667,6.149v-17.91667l43,-14.33333l14.33333,14.33333v17.91667l7.16667,-6.23858v-8.09475c0,-14.42292 -3.7195,-28.72042 -21.5,-32.25l-3.58333,-7.16667z" fill="#424242"></path><path d="M96.75,68.08333c0,1.978 1.60533,3.58333 3.58333,3.58333c1.978,0 3.58333,-1.60533 3.58333,-3.58333c0,-1.978 -1.60533,-3.58333 -3.58333,-3.58333c-1.978,0 -3.58333,1.60533 -3.58333,3.58333M68.08333,68.08333c0,1.978 1.60533,3.58333 3.58333,3.58333c1.978,0 3.58333,-1.60533 3.58333,-3.58333c0,-1.978 -1.60533,-3.58333 -3.58333,-3.58333c-1.978,0 -3.58333,1.60533 -3.58333,3.58333" fill="#784719"></path><path d="M86,132.58333c17.91667,0 24.16958,-14.0825 24.90775,-19.45033c-4.14592,-1.51933 -6.99108,-2.04967 -6.99108,-2.04967c0,0 -3.58333,14.33333 -17.91667,14.33333c-14.33333,0 -17.91667,-14.33333 -17.91667,-14.33333c0,0 -2.84517,0.52317 -6.99467,2.02817c0.731,5.35708 6.99467,19.47183 24.91133,19.47183z" fill="#01579b"></path></g></g></svg>